<?xml version="1.0" encoding="iso-8859-1"?>
<!-- Uploaded to: SVG Repo, www.svgrepo.com, Generator: SVG Repo Mixer Tools -->
<!DOCTYPE svg PUBLIC "-//W3C//DTD SVG 1.1//EN" "http://www.w3.org/Graphics/SVG/1.1/DTD/svg11.dtd">
<svg fill="#f4177a" version="1.1" id="Capa_1" xmlns="http://www.w3.org/2000/svg" xmlns:xlink="http://www.w3.org/1999/xlink" 
	 width="80px" height="80px" viewBox="0 0 35.336 35.336"
	 xml:space="preserve">
<g>
	<g>
		<path d="M5.468,23.188l-1.31-0.414L0,25.173l2.412,0.763l-0.545,2.472l4.158-2.4l0.296-1.341l2.738-1.581
			c-0.398-0.417-0.784-0.853-1.152-1.306L5.468,23.188z"/>
		<path d="M26.586,8.453l1.449,1.214l-0.584,0.337c-2.346-3.157-7.523-2.593-10.32-0.084C13.615,6.766,6.322,6.664,5.647,13.2
			c-0.874,8.412,11.484,14.932,11.484,14.932S29.49,21.612,28.618,13.2c-0.03-0.296-0.089-0.562-0.146-0.83l0.842-0.486l0.326,1.86
			l5.695-6.815L26.586,8.453z M29.63,11.208l-12.499,7.217v-1.972l11.646-6.724l-1.213-1.015l6.697-1.167l-4.359,5.217L29.63,11.208
			z"/>
	</g>
</g>
</svg>