<?xml version="1.0" encoding="iso-8859-1"?>
<!-- Uploaded to: SVG Repo, www.svgrepo.com, Generator: SVG Repo Mixer Tools -->
<!DOCTYPE svg PUBLIC "-//W3C//DTD SVG 1.1//EN" "http://www.w3.org/Graphics/SVG/1.1/DTD/svg11.dtd">
<svg fill="#f10101" version="1.1" id="Capa_1" xmlns="http://www.w3.org/2000/svg" xmlns:xlink="http://www.w3.org/1999/xlink" 
	 width="800px" height="800px" viewBox="0 0 30.23 30.23" xml:space="preserve"
	>
<g>
	<g>
		<path d="M13.312,15.521c-1.333-3.845-9.645-5.833-10.25,0.924c-0.777,8.692,10.25,13.786,10.25,13.786s11.028-5.094,10.25-13.786
			C22.956,9.688,14.645,11.676,13.312,15.521z"/>
		<path d="M14.535,10.749c0.785,0,1.42-0.508,1.42-1.136V6.464h3.706v2.157c-0.203-0.089-0.432-0.145-0.679-0.145
			c-0.785,0-1.421,0.51-1.421,1.137c0,0.628,0.636,1.136,1.421,1.136c0.783,0,1.42-0.508,1.42-1.136V4.796h-5.188v3.825
			c-0.202-0.089-0.431-0.145-0.679-0.145c-0.785,0-1.42,0.51-1.42,1.137C13.115,10.241,13.75,10.749,14.535,10.749z M15.955,5.536
			h3.706v0.557h-3.706V5.536z"/>
		<path d="M23.833,3.478v2.489c-0.131-0.058-0.281-0.094-0.442-0.094c-0.511,0-0.924,0.331-0.924,0.739s0.414,0.739,0.924,0.739
			c0.511,0,0.925-0.331,0.925-0.739v-2.05h2.41v1.404c-0.132-0.058-0.28-0.094-0.441-0.094c-0.511,0-0.924,0.331-0.924,0.739
			c0,0.408,0.414,0.739,0.924,0.739s0.924-0.331,0.924-0.739V3.476h-3.375V3.478z M26.727,4.322h-2.41V3.96h2.41V4.322z"/>
		<path d="M19.36,2.789c0.366,0,0.666-0.238,0.666-0.532V0.781h1.735v1.011c-0.095-0.041-0.202-0.067-0.317-0.067
			c-0.368,0-0.666,0.238-0.666,0.532s0.298,0.532,0.666,0.532c0.367,0,0.666-0.238,0.666-0.532V0h-2.432v1.792
			c-0.094-0.041-0.202-0.067-0.317-0.067c-0.368,0-0.666,0.238-0.666,0.532S18.992,2.789,19.36,2.789z M20.026,0.346h1.735v0.261
			h-1.735V0.346z"/>
	</g>
</g>
</svg>